# xmcd
#
# Track frame offsets:
#	150
#	12055
#	26662
#	42413
#	54760
#	67803
#	80643
#	98704
#	110081
#	119360
#	131659
#	149394
#	166708
#	180148
#	195903
#	210005
#	231926
#	247760
#
# Disc length: 3467 seconds
#
# Revision: 1
# Processed by: cddbd v1.5.1PL0 Copyright (c) Steve Scherf et al.
# Submitted via: CDex 1.50Beta5
#
DISCID=d80d8912
DTITLE=10-FEET - PUNK ROCK CAMP!!
DYEAR=2002
DGENRE=Rock
TTITLE0=10-FEET/FELLOWS 2
TTITLE1=10-FEET/CHERRY BLOSSOM
TTITLE2=PARKING OUT/サボテン
TTITLE3=PARKING OUT/疾駆
TTITLE4=HIGWAY 61/ナイトフィーバー
TTITLE5=HIGWAY 61/銀色バス
TTITLE6=太陽族/はなたれ小僧
TTITLE7=太陽族/クソガキの唄
TTITLE8=SHACHI/BREAK OUT
TTITLE9=SHACHI/ANGRY DAY
TTITLE10=鴨川/ムッチャ・DE・ラ・ムーチョ-名古屋産-
TTITLE11=鴨川/空
TTITLE12=CREEPS/新たなる一歩
TTITLE13=CREEPS/SUMMER STORY
TTITLE14=BOILED FISH PASTE/風
TTITLE15=BOILED FISH PASTE/傘もささず
TTITLE16=BOOGIE JACK,THE/低視力ランナー
TTITLE17=BOOGIE JACK,THE/宝人
EXTD=
EXTT0=
EXTT1=
EXTT2=
EXTT3=
EXTT4=
EXTT5=
EXTT6=
EXTT7=
EXTT8=
EXTT9=
EXTT10=
EXTT11=
EXTT12=
EXTT13=
EXTT14=
EXTT15=
EXTT16=
EXTT17=
PLAYORDER=
